# xmcd CD database file
#
# Track frame offsets:
#	150
#	19258
#	36750
#
# Disc length: 711 seconds
#
# Revision: 0
# Processed by: cddbd v1.5PL3 Copyright (c) Steve Scherf et al.
# Submitted via: CDex 1.51
#
DISCID=1c02c503
DTITLE=ラッパ我リヤ - NORINA
DYEAR=2003
DGENRE=Hip-Hop
TTITLE0=NORINA
TTITLE1=WARRIORS
TTITLE2=BATTLE WARRIORS
EXTD=YEAR: 2003
EXTT0=
EXTT1=
EXTT2=
PLAYORDER=
